<?xml version="1.0" encoding="UTF-8" standalone="no"?>
<!DOCTYPE svg PUBLIC "-//W3C//DTD SVG 1.1//EN"
 "http://www.w3.org/Graphics/SVG/1.1/DTD/svg11.dtd">
<!-- Generated by graphviz version 2.47.3 (20210619.2315)
 -->
<!-- Title: snakemake_dag Pages: 1 -->
<svg width="1113pt" height="601pt"
 viewBox="0.00 0.00 1112.90 601.00" xmlns="http://www.w3.org/2000/svg" xmlns:xlink="http://www.w3.org/1999/xlink">
<g id="graph0" class="graph" transform="scale(1 1) rotate(0) translate(4 597)">
<title>snakemake_dag</title>
<polygon fill="white" stroke="transparent" points="-4,4 -4,-597 1108.9,-597 1108.9,4 -4,4"/>
<!-- 0 -->
<g id="node1" class="node">
<title>0</title>
<path fill="none" stroke="#61d856" stroke-width="2" d="M936.4,-36C936.4,-36 906.4,-36 906.4,-36 900.4,-36 894.4,-30 894.4,-24 894.4,-24 894.4,-12 894.4,-12 894.4,-6 900.4,0 906.4,0 906.4,0 936.4,0 936.4,0 942.4,0 948.4,-6 948.4,-12 948.4,-12 948.4,-24 948.4,-24 948.4,-30 942.4,-36 936.4,-36"/>
<text text-anchor="middle" x="921.4" y="-15.5" font-family="sans" font-size="10.00">all</text>
</g>
<!-- 1 -->
<g id="node2" class="node">
<title>1</title>
<path fill="none" stroke="#d8cb56" stroke-width="2" d="M380.9,-127C380.9,-127 331.9,-127 331.9,-127 325.9,-127 319.9,-121 319.9,-115 319.9,-115 319.9,-103 319.9,-103 319.9,-97 325.9,-91 331.9,-91 331.9,-91 380.9,-91 380.9,-91 386.9,-91 392.9,-97 392.9,-103 392.9,-103 392.9,-115 392.9,-115 392.9,-121 386.9,-127 380.9,-127"/>
<text text-anchor="middle" x="356.4" y="-112" font-family="sans" font-size="10.00">qc_multiqc</text>
<text text-anchor="middle" x="356.4" y="-101" font-family="sans" font-size="10.00">report: RNA</text>
</g>
<!-- 1&#45;&gt;0 -->
<g id="edge1" class="edge">
<title>1&#45;&gt;0</title>
<path fill="none" stroke="grey" stroke-width="2" d="M393.03,-102.23C495.04,-86.16 781.59,-41.02 884.24,-24.85"/>
<polygon fill="grey" stroke="grey" stroke-width="2" points="884.81,-28.31 894.14,-23.29 883.72,-21.39 884.81,-28.31"/>
</g>
<!-- 2 -->
<g id="node3" class="node">
<title>2</title>
<path fill="none" stroke="#d89c56" stroke-width="2" d="M139.9,-267C139.9,-267 46.9,-267 46.9,-267 40.9,-267 34.9,-261 34.9,-255 34.9,-255 34.9,-194 34.9,-194 34.9,-188 40.9,-182 46.9,-182 46.9,-182 139.9,-182 139.9,-182 145.9,-182 151.9,-188 151.9,-194 151.9,-194 151.9,-255 151.9,-255 151.9,-261 145.9,-267 139.9,-267"/>
<text text-anchor="middle" x="93.4" y="-255" font-family="sans" font-size="10.00">qc_fastqc</text>
<text text-anchor="middle" x="93.4" y="-244" font-family="sans" font-size="10.00">barcode: ACGGAACA</text>
<text text-anchor="middle" x="93.4" y="-233" font-family="sans" font-size="10.00">flowcell: 1</text>
<text text-anchor="middle" x="93.4" y="-222" font-family="sans" font-size="10.00">lane: L001</text>
<text text-anchor="middle" x="93.4" y="-211" font-family="sans" font-size="10.00">read: fastq1</text>
<text text-anchor="middle" x="93.4" y="-200" font-family="sans" font-size="10.00">sample: NA12878</text>
<text text-anchor="middle" x="93.4" y="-189" font-family="sans" font-size="10.00">type: R</text>
</g>
<!-- 2&#45;&gt;1 -->
<g id="edge6" class="edge">
<title>2&#45;&gt;1</title>
<path fill="none" stroke="grey" stroke-width="2" d="M152.21,-186.17C154.95,-184.72 157.69,-183.32 160.4,-182 209.92,-157.87 269.72,-137.02 310.14,-124.05"/>
<polygon fill="grey" stroke="grey" stroke-width="2" points="311.25,-127.37 319.72,-121.01 309.13,-120.7 311.25,-127.37"/>
</g>
<!-- 3 -->
<g id="node4" class="node">
<title>3</title>
<path fill="none" stroke="#d89c56" stroke-width="2" d="M274.9,-267C274.9,-267 181.9,-267 181.9,-267 175.9,-267 169.9,-261 169.9,-255 169.9,-255 169.9,-194 169.9,-194 169.9,-188 175.9,-182 181.9,-182 181.9,-182 274.9,-182 274.9,-182 280.9,-182 286.9,-188 286.9,-194 286.9,-194 286.9,-255 286.9,-255 286.9,-261 280.9,-267 274.9,-267"/>
<text text-anchor="middle" x="228.4" y="-255" font-family="sans" font-size="10.00">qc_fastqc</text>
<text text-anchor="middle" x="228.4" y="-244" font-family="sans" font-size="10.00">barcode: ACGGAACA</text>
<text text-anchor="middle" x="228.4" y="-233" font-family="sans" font-size="10.00">flowcell: 1</text>
<text text-anchor="middle" x="228.4" y="-222" font-family="sans" font-size="10.00">lane: L001</text>
<text text-anchor="middle" x="228.4" y="-211" font-family="sans" font-size="10.00">read: fastq2</text>
<text text-anchor="middle" x="228.4" y="-200" font-family="sans" font-size="10.00">sample: NA12878</text>
<text text-anchor="middle" x="228.4" y="-189" font-family="sans" font-size="10.00">type: R</text>
</g>
<!-- 3&#45;&gt;1 -->
<g id="edge7" class="edge">
<title>3&#45;&gt;1</title>
<path fill="none" stroke="grey" stroke-width="2" d="M275.33,-181.88C293.56,-165.72 313.78,-147.79 329.47,-133.88"/>
<polygon fill="grey" stroke="grey" stroke-width="2" points="332.06,-136.26 337.22,-127 327.42,-131.02 332.06,-136.26"/>
</g>
<!-- 4 -->
<g id="node5" class="node">
<title>4</title>
<path fill="none" stroke="#56d87b" stroke-width="2" d="M436.9,-242.5C436.9,-242.5 355.9,-242.5 355.9,-242.5 349.9,-242.5 343.9,-236.5 343.9,-230.5 343.9,-230.5 343.9,-218.5 343.9,-218.5 343.9,-212.5 349.9,-206.5 355.9,-206.5 355.9,-206.5 436.9,-206.5 436.9,-206.5 442.9,-206.5 448.9,-212.5 448.9,-218.5 448.9,-218.5 448.9,-230.5 448.9,-230.5 448.9,-236.5 442.9,-242.5 436.9,-242.5"/>
<text text-anchor="middle" x="396.4" y="-222" font-family="sans" font-size="10.00">qc_mosdepth_bed</text>
</g>
<!-- 4&#45;&gt;1 -->
<g id="edge8" class="edge">
<title>4&#45;&gt;1</title>
<path fill="none" stroke="grey" stroke-width="2" d="M390.32,-206.26C383.79,-187.74 373.34,-158.07 365.76,-136.56"/>
<polygon fill="grey" stroke="grey" stroke-width="2" points="369.02,-135.3 362.4,-127.03 362.42,-137.62 369.02,-135.3"/>
</g>
<!-- 5 -->
<g id="node6" class="node">
<title>5</title>
<path fill="none" stroke="#d86656" stroke-width="2" d="M665.4,-411C665.4,-411 599.4,-411 599.4,-411 593.4,-411 587.4,-405 587.4,-399 587.4,-399 587.4,-387 587.4,-387 587.4,-381 593.4,-375 599.4,-375 599.4,-375 665.4,-375 665.4,-375 671.4,-375 677.4,-381 677.4,-387 677.4,-387 677.4,-399 677.4,-399 677.4,-405 671.4,-411 665.4,-411"/>
<text text-anchor="middle" x="632.4" y="-390.5" font-family="sans" font-size="10.00">alignment_star</text>
</g>
<!-- 5&#45;&gt;4 -->
<g id="edge13" class="edge">
<title>5&#45;&gt;4</title>
<path fill="none" stroke="grey" stroke-width="2" d="M592.96,-374.93C572.7,-365.46 548,-352.82 527.4,-339 487.31,-312.12 446.02,-274.36 420.78,-249.91"/>
<polygon fill="grey" stroke="grey" stroke-width="2" points="423.08,-247.27 413.48,-242.78 418.19,-252.27 423.08,-247.27"/>
</g>
<!-- 9 -->
<g id="node10" class="node">
<title>9</title>
<path fill="none" stroke="#d8b456" stroke-width="2" d="M704.4,-339C704.4,-339 560.4,-339 560.4,-339 554.4,-339 548.4,-333 548.4,-327 548.4,-327 548.4,-315 548.4,-315 548.4,-309 554.4,-303 560.4,-303 560.4,-303 704.4,-303 704.4,-303 710.4,-303 716.4,-309 716.4,-315 716.4,-315 716.4,-327 716.4,-327 716.4,-333 710.4,-339 704.4,-339"/>
<text text-anchor="middle" x="632.4" y="-324" font-family="sans" font-size="10.00">alignment_samtools_index</text>
<text text-anchor="middle" x="632.4" y="-313" font-family="sans" font-size="10.00">file: alignment/star/NA12878_R</text>
</g>
<!-- 5&#45;&gt;9 -->
<g id="edge19" class="edge">
<title>5&#45;&gt;9</title>
<path fill="none" stroke="grey" stroke-width="2" d="M632.4,-374.7C632.4,-366.98 632.4,-357.71 632.4,-349.11"/>
<polygon fill="grey" stroke="grey" stroke-width="2" points="635.9,-349.1 632.4,-339.1 628.9,-349.1 635.9,-349.1"/>
</g>
<!-- 10 -->
<g id="node11" class="node">
<title>10</title>
<path fill="none" stroke="#9fd856" stroke-width="2" d="M623.4,-242.5C623.4,-242.5 479.4,-242.5 479.4,-242.5 473.4,-242.5 467.4,-236.5 467.4,-230.5 467.4,-230.5 467.4,-218.5 467.4,-218.5 467.4,-212.5 473.4,-206.5 479.4,-206.5 479.4,-206.5 623.4,-206.5 623.4,-206.5 629.4,-206.5 635.4,-212.5 635.4,-218.5 635.4,-218.5 635.4,-230.5 635.4,-230.5 635.4,-236.5 629.4,-242.5 623.4,-242.5"/>
<text text-anchor="middle" x="551.4" y="-222" font-family="sans" font-size="10.00">qc_rseqc_gene_body_coverage</text>
</g>
<!-- 5&#45;&gt;10 -->
<g id="edge20" class="edge">
<title>5&#45;&gt;10</title>
<path fill="none" stroke="grey" stroke-width="2" d="M587.15,-377.64C568.96,-369.39 549.85,-357 539.4,-339 523.98,-312.47 531.61,-276.5 540.04,-252.22"/>
<polygon fill="grey" stroke="grey" stroke-width="2" points="543.42,-253.18 543.64,-242.59 536.86,-250.73 543.42,-253.18"/>
</g>
<!-- 11 -->
<g id="node12" class="node">
<title>11</title>
<path fill="none" stroke="#56b1d8" stroke-width="2" d="M777.4,-242.5C777.4,-242.5 665.4,-242.5 665.4,-242.5 659.4,-242.5 653.4,-236.5 653.4,-230.5 653.4,-230.5 653.4,-218.5 653.4,-218.5 653.4,-212.5 659.4,-206.5 665.4,-206.5 665.4,-206.5 777.4,-206.5 777.4,-206.5 783.4,-206.5 789.4,-212.5 789.4,-218.5 789.4,-218.5 789.4,-230.5 789.4,-230.5 789.4,-236.5 783.4,-242.5 777.4,-242.5"/>
<text text-anchor="middle" x="721.4" y="-222" font-family="sans" font-size="10.00">qc_rseqc_inner_distance</text>
</g>
<!-- 5&#45;&gt;11 -->
<g id="edge22" class="edge">
<title>5&#45;&gt;11</title>
<path fill="none" stroke="grey" stroke-width="2" d="M677.64,-377.64C695.83,-369.39 714.94,-357 725.4,-339 740.74,-312.6 736.05,-276.6 729.96,-252.28"/>
<polygon fill="grey" stroke="grey" stroke-width="2" points="733.33,-251.35 727.31,-242.63 726.58,-253.2 733.33,-251.35"/>
</g>
<!-- 15 -->
<g id="node16" class="node">
<title>15</title>
<path fill="none" stroke="#d8c356" stroke-width="2" d="M881.4,-242.5C881.4,-242.5 819.4,-242.5 819.4,-242.5 813.4,-242.5 807.4,-236.5 807.4,-230.5 807.4,-230.5 807.4,-218.5 807.4,-218.5 807.4,-212.5 813.4,-206.5 819.4,-206.5 819.4,-206.5 881.4,-206.5 881.4,-206.5 887.4,-206.5 893.4,-212.5 893.4,-218.5 893.4,-218.5 893.4,-230.5 893.4,-230.5 893.4,-236.5 887.4,-242.5 881.4,-242.5"/>
<text text-anchor="middle" x="850.4" y="-222" font-family="sans" font-size="10.00">fusions_arriba</text>
</g>
<!-- 5&#45;&gt;15 -->
<g id="edge30" class="edge">
<title>5&#45;&gt;15</title>
<path fill="none" stroke="grey" stroke-width="2" d="M677.62,-375.22C698.93,-366.19 724.07,-353.84 744.4,-339 779.22,-313.57 811.9,-275.62 831.53,-250.72"/>
<polygon fill="grey" stroke="grey" stroke-width="2" points="834.3,-252.85 837.67,-242.81 828.77,-248.56 834.3,-252.85"/>
</g>
<!-- 6 -->
<g id="node7" class="node">
<title>6</title>
<path fill="none" stroke="#56d85b" stroke-width="2" d="M801.9,-483C801.9,-483 700.9,-483 700.9,-483 694.9,-483 688.9,-477 688.9,-471 688.9,-471 688.9,-459 688.9,-459 688.9,-453 694.9,-447 700.9,-447 700.9,-447 801.9,-447 801.9,-447 807.9,-447 813.9,-453 813.9,-459 813.9,-459 813.9,-471 813.9,-471 813.9,-477 807.9,-483 801.9,-483"/>
<text text-anchor="middle" x="751.4" y="-468" font-family="sans" font-size="10.00">prealignment_merged</text>
<text text-anchor="middle" x="751.4" y="-457" font-family="sans" font-size="10.00">read: fastq1</text>
</g>
<!-- 6&#45;&gt;5 -->
<g id="edge15" class="edge">
<title>6&#45;&gt;5</title>
<path fill="none" stroke="grey" stroke-width="2" d="M722.29,-446.88C706.73,-437.72 687.38,-426.34 670.62,-416.48"/>
<polygon fill="grey" stroke="grey" stroke-width="2" points="672.01,-413.24 661.62,-411.19 668.46,-419.28 672.01,-413.24"/>
</g>
<!-- 12 -->
<g id="node13" class="node">
<title>12</title>
<path fill="none" stroke="#d85656" stroke-width="2" d="M556.9,-411C556.9,-411 443.9,-411 443.9,-411 437.9,-411 431.9,-405 431.9,-399 431.9,-399 431.9,-387 431.9,-387 431.9,-381 437.9,-375 443.9,-375 443.9,-375 556.9,-375 556.9,-375 562.9,-375 568.9,-381 568.9,-387 568.9,-387 568.9,-399 568.9,-399 568.9,-405 562.9,-411 556.9,-411"/>
<text text-anchor="middle" x="500.4" y="-390.5" font-family="sans" font-size="10.00">prealignment_sortmerna</text>
</g>
<!-- 6&#45;&gt;12 -->
<g id="edge24" class="edge">
<title>6&#45;&gt;12</title>
<path fill="none" stroke="grey" stroke-width="2" d="M690.32,-446.97C654.48,-436.97 609.04,-424.3 571.59,-413.85"/>
<polygon fill="grey" stroke="grey" stroke-width="2" points="572.32,-410.43 561.75,-411.11 570.44,-417.17 572.32,-410.43"/>
</g>
<!-- 13 -->
<g id="node14" class="node">
<title>13</title>
<path fill="none" stroke="#68d856" stroke-width="2" d="M794.9,-411C794.9,-411 707.9,-411 707.9,-411 701.9,-411 695.9,-405 695.9,-399 695.9,-399 695.9,-387 695.9,-387 695.9,-381 701.9,-375 707.9,-375 707.9,-375 794.9,-375 794.9,-375 800.9,-375 806.9,-381 806.9,-387 806.9,-387 806.9,-399 806.9,-399 806.9,-405 800.9,-411 794.9,-411"/>
<text text-anchor="middle" x="751.4" y="-390.5" font-family="sans" font-size="10.00">fusions_star_fusion</text>
</g>
<!-- 6&#45;&gt;13 -->
<g id="edge26" class="edge">
<title>6&#45;&gt;13</title>
<path fill="none" stroke="grey" stroke-width="2" d="M751.4,-446.7C751.4,-438.98 751.4,-429.71 751.4,-421.11"/>
<polygon fill="grey" stroke="grey" stroke-width="2" points="754.9,-421.1 751.4,-411.1 747.9,-421.1 754.9,-421.1"/>
</g>
<!-- 14 -->
<g id="node15" class="node">
<title>14</title>
<path fill="none" stroke="#568ad8" stroke-width="2" d="M935.9,-411C935.9,-411 836.9,-411 836.9,-411 830.9,-411 824.9,-405 824.9,-399 824.9,-399 824.9,-387 824.9,-387 824.9,-381 830.9,-375 836.9,-375 836.9,-375 935.9,-375 935.9,-375 941.9,-375 947.9,-381 947.9,-387 947.9,-387 947.9,-399 947.9,-399 947.9,-405 941.9,-411 935.9,-411"/>
<text text-anchor="middle" x="886.4" y="-390.5" font-family="sans" font-size="10.00">fusions_fusioncatcher</text>
</g>
<!-- 6&#45;&gt;14 -->
<g id="edge28" class="edge">
<title>6&#45;&gt;14</title>
<path fill="none" stroke="grey" stroke-width="2" d="M784.42,-446.88C802.48,-437.51 825.04,-425.81 844.35,-415.8"/>
<polygon fill="grey" stroke="grey" stroke-width="2" points="845.98,-418.9 853.24,-411.19 842.76,-412.69 845.98,-418.9"/>
</g>
<!-- 7 -->
<g id="node8" class="node">
<title>7</title>
<path fill="none" stroke="#5663d8" stroke-width="2" d="M660.9,-593C660.9,-593 555.9,-593 555.9,-593 549.9,-593 543.9,-587 543.9,-581 543.9,-581 543.9,-531 543.9,-531 543.9,-525 549.9,-519 555.9,-519 555.9,-519 660.9,-519 660.9,-519 666.9,-519 672.9,-525 672.9,-531 672.9,-531 672.9,-581 672.9,-581 672.9,-587 666.9,-593 660.9,-593"/>
<text text-anchor="middle" x="608.4" y="-581" font-family="sans" font-size="10.00">prealignment_fastp_pe</text>
<text text-anchor="middle" x="608.4" y="-570" font-family="sans" font-size="10.00">barcode: ACGGAACA</text>
<text text-anchor="middle" x="608.4" y="-559" font-family="sans" font-size="10.00">flowcell: 1</text>
<text text-anchor="middle" x="608.4" y="-548" font-family="sans" font-size="10.00">lane: L001</text>
<text text-anchor="middle" x="608.4" y="-537" font-family="sans" font-size="10.00">sample: NA12878</text>
<text text-anchor="middle" x="608.4" y="-526" font-family="sans" font-size="10.00">type: R</text>
</g>
<!-- 7&#45;&gt;1 -->
<g id="edge11" class="edge">
<title>7&#45;&gt;1</title>
<path fill="none" stroke="grey" stroke-width="2" d="M543.69,-551.41C388.2,-541.02 6.4,-504.28 6.4,-394 6.4,-394 6.4,-394 6.4,-320 6.4,-258.09 -16.66,-227.44 25.4,-182 63.42,-140.92 227.91,-121.12 309.77,-113.67"/>
<polygon fill="grey" stroke="grey" stroke-width="2" points="310.15,-117.15 319.8,-112.78 309.53,-110.18 310.15,-117.15"/>
</g>
<!-- 7&#45;&gt;6 -->
<g id="edge17" class="edge">
<title>7&#45;&gt;6</title>
<path fill="none" stroke="grey" stroke-width="2" d="M666.56,-518.8C682.95,-508.6 700.32,-497.79 715.03,-488.63"/>
<polygon fill="grey" stroke="grey" stroke-width="2" points="717.18,-491.42 723.82,-483.16 713.49,-485.47 717.18,-491.42"/>
</g>
<!-- 8 -->
<g id="node9" class="node">
<title>8</title>
<path fill="none" stroke="#56d85b" stroke-width="2" d="M658.9,-483C658.9,-483 557.9,-483 557.9,-483 551.9,-483 545.9,-477 545.9,-471 545.9,-471 545.9,-459 545.9,-459 545.9,-453 551.9,-447 557.9,-447 557.9,-447 658.9,-447 658.9,-447 664.9,-447 670.9,-453 670.9,-459 670.9,-459 670.9,-471 670.9,-471 670.9,-477 664.9,-483 658.9,-483"/>
<text text-anchor="middle" x="608.4" y="-468" font-family="sans" font-size="10.00">prealignment_merged</text>
<text text-anchor="middle" x="608.4" y="-457" font-family="sans" font-size="10.00">read: fastq2</text>
</g>
<!-- 7&#45;&gt;8 -->
<g id="edge18" class="edge">
<title>7&#45;&gt;8</title>
<path fill="none" stroke="grey" stroke-width="2" d="M608.4,-518.8C608.4,-510.33 608.4,-501.44 608.4,-493.43"/>
<polygon fill="grey" stroke="grey" stroke-width="2" points="611.9,-493.16 608.4,-483.16 604.9,-493.16 611.9,-493.16"/>
</g>
<!-- 8&#45;&gt;5 -->
<g id="edge16" class="edge">
<title>8&#45;&gt;5</title>
<path fill="none" stroke="grey" stroke-width="2" d="M614.33,-446.7C617,-438.9 620.22,-429.51 623.2,-420.83"/>
<polygon fill="grey" stroke="grey" stroke-width="2" points="626.6,-421.7 626.53,-411.1 619.98,-419.43 626.6,-421.7"/>
</g>
<!-- 8&#45;&gt;12 -->
<g id="edge25" class="edge">
<title>8&#45;&gt;12</title>
<path fill="none" stroke="grey" stroke-width="2" d="M581.98,-446.88C567.99,-437.81 550.62,-426.55 535.51,-416.76"/>
<polygon fill="grey" stroke="grey" stroke-width="2" points="537.21,-413.69 526.92,-411.19 533.41,-419.57 537.21,-413.69"/>
</g>
<!-- 8&#45;&gt;13 -->
<g id="edge27" class="edge">
<title>8&#45;&gt;13</title>
<path fill="none" stroke="grey" stroke-width="2" d="M643.38,-446.88C662.59,-437.47 686.62,-425.71 707.13,-415.67"/>
<polygon fill="grey" stroke="grey" stroke-width="2" points="708.84,-418.73 716.28,-411.19 705.76,-412.44 708.84,-418.73"/>
</g>
<!-- 8&#45;&gt;14 -->
<g id="edge29" class="edge">
<title>8&#45;&gt;14</title>
<path fill="none" stroke="grey" stroke-width="2" d="M671.13,-448.2C713.86,-437.44 770.52,-423.18 814.98,-411.98"/>
<polygon fill="grey" stroke="grey" stroke-width="2" points="816,-415.33 824.85,-409.5 814.29,-408.55 816,-415.33"/>
</g>
<!-- 9&#45;&gt;4 -->
<g id="edge14" class="edge">
<title>9&#45;&gt;4</title>
<path fill="none" stroke="grey" stroke-width="2" d="M559.5,-302.94C527.65,-294.19 490.35,-282.15 458.4,-267 447.53,-261.85 436.4,-254.98 426.62,-248.31"/>
<polygon fill="grey" stroke="grey" stroke-width="2" points="428.6,-245.43 418.41,-242.55 424.58,-251.16 428.6,-245.43"/>
</g>
<!-- 9&#45;&gt;10 -->
<g id="edge21" class="edge">
<title>9&#45;&gt;10</title>
<path fill="none" stroke="grey" stroke-width="2" d="M617.54,-302.67C604.98,-288.01 586.83,-266.84 572.72,-250.38"/>
<polygon fill="grey" stroke="grey" stroke-width="2" points="575.32,-248.04 566.16,-242.72 570.01,-252.59 575.32,-248.04"/>
</g>
<!-- 9&#45;&gt;11 -->
<g id="edge23" class="edge">
<title>9&#45;&gt;11</title>
<path fill="none" stroke="grey" stroke-width="2" d="M648.72,-302.67C662.52,-288.01 682.46,-266.84 697.97,-250.38"/>
<polygon fill="grey" stroke="grey" stroke-width="2" points="700.87,-252.4 705.18,-242.72 695.77,-247.6 700.87,-252.4"/>
</g>
<!-- 9&#45;&gt;15 -->
<g id="edge31" class="edge">
<title>9&#45;&gt;15</title>
<path fill="none" stroke="grey" stroke-width="2" d="M705.39,-302.91C735.23,-294.37 769.45,-282.49 798.4,-267 807.47,-262.15 816.52,-255.65 824.47,-249.23"/>
<polygon fill="grey" stroke="grey" stroke-width="2" points="826.9,-251.77 832.31,-242.66 822.4,-246.4 826.9,-251.77"/>
</g>
<!-- 10&#45;&gt;1 -->
<g id="edge9" class="edge">
<title>10&#45;&gt;1</title>
<path fill="none" stroke="grey" stroke-width="2" d="M521.78,-206.26C487.8,-186.48 431.97,-153.99 394.7,-132.3"/>
<polygon fill="grey" stroke="grey" stroke-width="2" points="396.06,-129.03 385.65,-127.03 392.53,-135.08 396.06,-129.03"/>
</g>
<!-- 11&#45;&gt;1 -->
<g id="edge10" class="edge">
<title>11&#45;&gt;1</title>
<path fill="none" stroke="grey" stroke-width="2" d="M693.68,-206.38C679.37,-198.11 661.39,-188.58 644.4,-182 562.11,-150.12 461.06,-128.68 403.16,-117.97"/>
<polygon fill="grey" stroke="grey" stroke-width="2" points="403.68,-114.51 393.21,-116.16 402.42,-121.39 403.68,-114.51"/>
</g>
<!-- 12&#45;&gt;1 -->
<g id="edge12" class="edge">
<title>12&#45;&gt;1</title>
<path fill="none" stroke="grey" stroke-width="2" d="M460.24,-374.97C420.03,-355.46 360.48,-319.3 334.4,-267 313.35,-224.81 330.32,-168.8 343.85,-136.34"/>
<polygon fill="grey" stroke="grey" stroke-width="2" points="347.1,-137.63 347.89,-127.07 340.69,-134.84 347.1,-137.63"/>
</g>
<!-- 13&#45;&gt;0 -->
<g id="edge2" class="edge">
<title>13&#45;&gt;0</title>
<path fill="none" stroke="grey" stroke-width="2" d="M784.96,-374.93C820.97,-354.6 876.49,-317.01 902.4,-267 939.89,-194.61 932.42,-94.11 925.91,-46.33"/>
<polygon fill="grey" stroke="grey" stroke-width="2" points="929.33,-45.56 924.43,-36.17 922.4,-46.57 929.33,-45.56"/>
</g>
<!-- 14&#45;&gt;0 -->
<g id="edge3" class="edge">
<title>14&#45;&gt;0</title>
<path fill="none" stroke="grey" stroke-width="2" d="M908.55,-374.87C918.81,-365.52 929.92,-353 935.4,-339 975.37,-236.87 945.44,-102.17 929.59,-45.71"/>
<polygon fill="grey" stroke="grey" stroke-width="2" points="932.96,-44.74 926.82,-36.1 926.23,-46.68 932.96,-44.74"/>
</g>
<!-- 15&#45;&gt;0 -->
<g id="edge4" class="edge">
<title>15&#45;&gt;0</title>
<path fill="none" stroke="grey" stroke-width="2" d="M856.33,-206.42C868.7,-170.78 897.34,-88.29 912.15,-45.63"/>
<polygon fill="grey" stroke="grey" stroke-width="2" points="915.46,-46.77 915.43,-36.18 908.85,-44.48 915.46,-46.77"/>
</g>
<!-- 16 -->
<g id="node17" class="node">
<title>16</title>
<path fill="none" stroke="#d8a456" stroke-width="2" d="M1092.9,-146C1092.9,-146 999.9,-146 999.9,-146 993.9,-146 987.9,-140 987.9,-134 987.9,-134 987.9,-84 987.9,-84 987.9,-78 993.9,-72 999.9,-72 999.9,-72 1092.9,-72 1092.9,-72 1098.9,-72 1104.9,-78 1104.9,-84 1104.9,-84 1104.9,-134 1104.9,-134 1104.9,-140 1098.9,-146 1092.9,-146"/>
<text text-anchor="middle" x="1046.4" y="-134" font-family="sans" font-size="10.00">compression_spring</text>
<text text-anchor="middle" x="1046.4" y="-123" font-family="sans" font-size="10.00">barcode: ACGGAACA</text>
<text text-anchor="middle" x="1046.4" y="-112" font-family="sans" font-size="10.00">flowcell: 1</text>
<text text-anchor="middle" x="1046.4" y="-101" font-family="sans" font-size="10.00">lane: L001</text>
<text text-anchor="middle" x="1046.4" y="-90" font-family="sans" font-size="10.00">sample: NA12878</text>
<text text-anchor="middle" x="1046.4" y="-79" font-family="sans" font-size="10.00">type: R</text>
</g>
<!-- 16&#45;&gt;0 -->
<g id="edge5" class="edge">
<title>16&#45;&gt;0</title>
<path fill="none" stroke="grey" stroke-width="2" d="M995.55,-71.8C981.49,-61.79 966.62,-51.2 953.91,-42.15"/>
<polygon fill="grey" stroke="grey" stroke-width="2" points="955.67,-39.11 945.5,-36.16 951.61,-44.81 955.67,-39.11"/>
</g>
</g>
</svg>
